<svg id="visual" viewBox="0 0 900 600" width="900" height="600" xmlns="http://www.w3.org/2000/svg" xmlns:xlink="http://www.w3.org/1999/xlink" version="1.1"><path d="M0 210L13.7 204.7C27.3 199.3 54.7 188.7 82 193.7C109.3 198.7 136.7 219.3 163.8 222.5C191 225.7 218 211.3 245.2 217.5C272.3 223.7 299.7 250.3 327 258.7C354.3 267 381.7 257 409 245C436.3 233 463.7 219 491 216.5C518.3 214 545.7 223 573 221.3C600.3 219.7 627.7 207.3 654.8 197.8C682 188.3 709 181.7 736.2 198.3C763.3 215 790.7 255 818 255.3C845.3 255.7 872.7 216.3 886.3 196.7L900 177L900 0L886.3 0C872.7 0 845.3 0 818 0C790.7 0 763.3 0 736.2 0C709 0 682 0 654.8 0C627.7 0 600.3 0 573 0C545.7 0 518.3 0 491 0C463.7 0 436.3 0 409 0C381.7 0 354.3 0 327 0C299.7 0 272.3 0 245.2 0C218 0 191 0 163.8 0C136.7 0 109.3 0 82 0C54.7 0 27.3 0 13.7 0L0 0Z" fill="#fa7268"></path><path d="M0 243L13.7 229.5C27.3 216 54.7 189 82 181.2C109.3 173.3 136.7 184.7 163.8 183.7C191 182.7 218 169.3 245.2 173.3C272.3 177.3 299.7 198.7 327 211.8C354.3 225 381.7 230 409 217.3C436.3 204.7 463.7 174.3 491 161C518.3 147.7 545.7 151.3 573 154.7C600.3 158 627.7 161 654.8 157.8C682 154.7 709 145.3 736.2 143.2C763.3 141 790.7 146 818 156.3C845.3 166.7 872.7 182.3 886.3 190.2L900 198L900 0L886.3 0C872.7 0 845.3 0 818 0C790.7 0 763.3 0 736.2 0C709 0 682 0 654.8 0C627.7 0 600.3 0 573 0C545.7 0 518.3 0 491 0C463.7 0 436.3 0 409 0C381.7 0 354.3 0 327 0C299.7 0 272.3 0 245.2 0C218 0 191 0 163.8 0C136.7 0 109.3 0 82 0C54.7 0 27.3 0 13.7 0L0 0Z" fill="#ef5f67"></path><path d="M0 194L13.7 192C27.3 190 54.7 186 82 177.5C109.3 169 136.7 156 163.8 154.5C191 153 218 163 245.2 172.2C272.3 181.3 299.7 189.7 327 183C354.3 176.3 381.7 154.7 409 147.7C436.3 140.7 463.7 148.3 491 152.3C518.3 156.3 545.7 156.7 573 162.8C600.3 169 627.7 181 654.8 177.8C682 174.7 709 156.3 736.2 152.3C763.3 148.3 790.7 158.7 818 164.2C845.3 169.7 872.7 170.3 886.3 170.7L900 171L900 0L886.3 0C872.7 0 845.3 0 818 0C790.7 0 763.3 0 736.2 0C709 0 682 0 654.8 0C627.7 0 600.3 0 573 0C545.7 0 518.3 0 491 0C463.7 0 436.3 0 409 0C381.7 0 354.3 0 327 0C299.7 0 272.3 0 245.2 0C218 0 191 0 163.8 0C136.7 0 109.3 0 82 0C54.7 0 27.3 0 13.7 0L0 0Z" fill="#e34c67"></path><path d="M0 125L13.7 116C27.3 107 54.7 89 82 83.7C109.3 78.3 136.7 85.7 163.8 97C191 108.3 218 123.7 245.2 124.5C272.3 125.3 299.7 111.7 327 109.7C354.3 107.7 381.7 117.3 409 112.7C436.3 108 463.7 89 491 84.3C518.3 79.7 545.7 89.3 573 95.2C600.3 101 627.7 103 654.8 105.8C682 108.7 709 112.3 736.2 116C763.3 119.7 790.7 123.3 818 117.7C845.3 112 872.7 97 886.3 89.5L900 82L900 0L886.3 0C872.7 0 845.3 0 818 0C790.7 0 763.3 0 736.2 0C709 0 682 0 654.8 0C627.7 0 600.3 0 573 0C545.7 0 518.3 0 491 0C463.7 0 436.3 0 409 0C381.7 0 354.3 0 327 0C299.7 0 272.3 0 245.2 0C218 0 191 0 163.8 0C136.7 0 109.3 0 82 0C54.7 0 27.3 0 13.7 0L0 0Z" fill="#d53867"></path><path d="M0 53L13.7 59.2C27.3 65.3 54.7 77.7 82 83.2C109.3 88.7 136.7 87.3 163.8 78.7C191 70 218 54 245.2 49C272.3 44 299.7 50 327 54.7C354.3 59.3 381.7 62.7 409 63.2C436.3 63.7 463.7 61.3 491 58.8C518.3 56.3 545.7 53.7 573 50.5C600.3 47.3 627.7 43.7 654.8 44.5C682 45.3 709 50.7 736.2 54.7C763.3 58.7 790.7 61.3 818 67C845.3 72.7 872.7 81.3 886.3 85.7L900 90L900 0L886.3 0C872.7 0 845.3 0 818 0C790.7 0 763.3 0 736.2 0C709 0 682 0 654.8 0C627.7 0 600.3 0 573 0C545.7 0 518.3 0 491 0C463.7 0 436.3 0 409 0C381.7 0 354.3 0 327 0C299.7 0 272.3 0 245.2 0C218 0 191 0 163.8 0C136.7 0 109.3 0 82 0C54.7 0 27.3 0 13.7 0L0 0Z" fill="#c62368"></path></svg>