<svg id="visual" viewBox="0 0 900 600" width="900" height="600" xmlns="http://www.w3.org/2000/svg" xmlns:xlink="http://www.w3.org/1999/xlink" version="1.1"><path d="M378 0L290 0L290 75L265 75L265 150L417 150L417 225L391 225L391 300L269 300L269 375L322 375L322 450L320 450L320 525L314 525L314 600L0 600L0 525L0 525L0 450L0 450L0 375L0 375L0 300L0 300L0 225L0 225L0 150L0 150L0 75L0 75L0 0L0 0Z" fill="#00cc8e"></path><path d="M281 0L185 0L185 75L155 75L155 150L275 150L275 225L231 225L231 300L298 300L298 375L164 375L164 450L247 450L247 525L296 525L296 600L0 600L0 525L0 525L0 450L0 450L0 375L0 375L0 300L0 300L0 225L0 225L0 150L0 150L0 75L0 75L0 0L0 0Z" fill="#00a784"></path><path d="M186 0L102 0L102 75L93 75L93 150L40 150L40 225L78 225L78 300L97 300L97 375L116 375L116 450L74 450L74 525L36 525L36 600L0 600L0 525L0 525L0 450L0 450L0 375L0 375L0 300L0 300L0 225L0 225L0 150L0 150L0 75L0 75L0 0L0 0Z" fill="#038373"></path></svg>